<svg width="526" height="62" viewBox="0 0 526 62" fill="none" xmlns="http://www.w3.org/2000/svg">
<g clip-path="url(#clip0_119_14)">
<path d="M0 57.5L27 39.5L37 61.5H2L0 57.5Z" fill="#0000D4"/>
<path d="M32 35.5L59 18.5L78 61.5H44L32 35.5Z" fill="#0000D4"/>
<path d="M64.5 15L87 0L114 61.5H85L64.5 15Z" fill="#0000D4"/>
<path d="M141.88 39.68H130.76L128.92 45H123.04L133.08 17.04H139.6L149.64 45H143.72L141.88 39.68ZM140.36 35.2L136.32 23.52L132.28 35.2H140.36ZM163.153 17.08C166.086 17.08 168.659 17.6533 170.873 18.8C173.113 19.9467 174.833 21.5867 176.033 23.72C177.259 25.8267 177.873 28.28 177.873 31.08C177.873 33.88 177.259 36.3333 176.033 38.44C174.833 40.52 173.113 42.1333 170.873 43.28C168.659 44.4267 166.086 45 163.153 45H153.393V17.08H163.153ZM162.953 40.24C165.886 40.24 168.153 39.44 169.753 37.84C171.353 36.24 172.153 33.9867 172.153 31.08C172.153 28.1733 171.353 25.9067 169.753 24.28C168.153 22.6267 165.886 21.8 162.953 21.8H158.993V40.24H162.953ZM205.225 17.08V45H199.625V33.12H187.665V45H182.065V17.08H187.665V28.56H199.625V17.08H205.225ZM216.337 17.08V45H210.737V17.08H216.337ZM247.681 17.08V36.68C247.681 39.4 246.894 41.52 245.321 43.04C243.747 44.5333 241.641 45.28 239.001 45.28C236.334 45.28 234.174 44.5067 232.521 42.96C230.894 41.4133 230.081 39.2533 230.081 36.48H235.681C235.707 37.68 235.987 38.6133 236.521 39.28C237.081 39.9467 237.881 40.28 238.921 40.28C239.934 40.28 240.707 39.96 241.241 39.32C241.774 38.68 242.041 37.8 242.041 36.68V17.08H247.681ZM271.333 39.68H260.213L258.373 45H252.493L262.533 17.04H269.053L279.093 45H273.173L271.333 39.68ZM269.813 35.2L265.773 23.52L261.733 35.2H269.813ZM305.046 17.08L295.606 35.28V45H290.006V35.28L280.526 17.08H286.846L292.846 29.84L298.806 17.08H305.046ZM325.396 39.68H314.276L312.436 45H306.556L316.596 17.04H323.116L333.156 45H327.236L325.396 39.68ZM323.876 35.2L319.836 23.52L315.796 35.2H323.876ZM366.8 25.72C366.8 27.2133 366.44 28.6133 365.72 29.92C365.026 31.2267 363.92 32.28 362.4 33.08C360.906 33.88 359.013 34.28 356.72 34.28H352.04V45H346.44V17.08H356.72C358.88 17.08 360.72 17.4533 362.24 18.2C363.76 18.9467 364.893 19.9733 365.64 21.28C366.413 22.5867 366.8 24.0667 366.8 25.72ZM356.48 29.76C358.026 29.76 359.173 29.4133 359.92 28.72C360.666 28 361.04 27 361.04 25.72C361.04 23 359.52 21.64 356.48 21.64H352.04V29.76H356.48ZM376.376 21.6V28.6H385.776V33.04H376.376V40.44H386.976V45H370.776V17.04H386.976V21.6H376.376ZM406.465 45L400.305 34.12H397.665V45H392.065V17.08H402.545C404.705 17.08 406.545 17.4667 408.065 18.24C409.585 18.9867 410.718 20.0133 411.465 21.32C412.238 22.6 412.625 24.04 412.625 25.64C412.625 27.48 412.091 29.1467 411.025 30.64C409.958 32.1067 408.371 33.12 406.265 33.68L412.945 45H406.465ZM397.665 29.92H402.345C403.865 29.92 404.998 29.56 405.745 28.84C406.491 28.0933 406.865 27.0667 406.865 25.76C406.865 24.48 406.491 23.4933 405.745 22.8C404.998 22.08 403.865 21.72 402.345 21.72H397.665V29.92ZM427.33 45.28C425.383 45.28 423.623 44.9467 422.05 44.28C420.503 43.6133 419.276 42.6533 418.37 41.4C417.463 40.1467 416.996 38.6667 416.97 36.96H422.97C423.05 38.1067 423.45 39.0133 424.17 39.68C424.916 40.3467 425.93 40.68 427.21 40.68C428.516 40.68 429.543 40.3733 430.29 39.76C431.036 39.12 431.41 38.2933 431.41 37.28C431.41 36.4533 431.156 35.7733 430.65 35.24C430.143 34.7067 429.503 34.2933 428.73 34C427.983 33.68 426.943 33.3333 425.61 32.96C423.796 32.4267 422.316 31.9067 421.17 31.4C420.05 30.8667 419.076 30.08 418.25 29.04C417.45 27.9733 417.05 26.56 417.05 24.8C417.05 23.1467 417.463 21.7067 418.29 20.48C419.116 19.2533 420.276 18.32 421.77 17.68C423.263 17.0133 424.97 16.68 426.89 16.68C429.77 16.68 432.103 17.3867 433.89 18.8C435.703 20.1867 436.703 22.1333 436.89 24.64H430.73C430.676 23.68 430.263 22.8933 429.49 22.28C428.743 21.64 427.743 21.32 426.49 21.32C425.396 21.32 424.516 21.6 423.85 22.16C423.21 22.72 422.89 23.5333 422.89 24.6C422.89 25.3467 423.13 25.9733 423.61 26.48C424.116 26.96 424.73 27.36 425.45 27.68C426.196 27.9733 427.236 28.32 428.57 28.72C430.383 29.2533 431.863 29.7867 433.01 30.32C434.156 30.8533 435.143 31.6533 435.97 32.72C436.796 33.7867 437.21 35.1867 437.21 36.92C437.21 38.4133 436.823 39.8 436.05 41.08C435.276 42.36 434.143 43.3867 432.65 44.16C431.156 44.9067 429.383 45.28 427.33 45.28ZM459.185 39.68H448.065L446.225 45H440.345L450.385 17.04H456.905L466.945 45H461.025L459.185 39.68ZM457.665 35.2L453.625 23.52L449.585 35.2H457.665ZM480.458 17.08C483.391 17.08 485.964 17.6533 488.178 18.8C490.418 19.9467 492.138 21.5867 493.338 23.72C494.564 25.8267 495.178 28.28 495.178 31.08C495.178 33.88 494.564 36.3333 493.338 38.44C492.138 40.52 490.418 42.1333 488.178 43.28C485.964 44.4267 483.391 45 480.458 45H470.698V17.08H480.458ZM480.258 40.24C483.191 40.24 485.458 39.44 487.058 37.84C488.658 36.24 489.458 33.9867 489.458 31.08C489.458 28.1733 488.658 25.9067 487.058 24.28C485.458 22.6267 483.191 21.8 480.258 21.8H476.298V40.24H480.258ZM516.489 39.68H505.369L503.529 45H497.649L507.689 17.04H514.209L524.249 45H518.329L516.489 39.68ZM514.969 35.2L510.929 23.52L506.889 35.2H514.969Z" fill="#DB3333"/>
</g>
<defs>
<clipPath id="clip0_119_14">
<rect width="526" height="62" fill="white"/>
</clipPath>
</defs>
</svg>
