<svg width="128" height="128" viewBox="0 0 128 128" fill="none" xmlns="http://www.w3.org/2000/svg">
<path d="M7 82L34 64L44 86H9L7 82Z" fill="#0000D4"/>
<path d="M39 60L66 43L85 86H51L39 60Z" fill="#0000D4"/>
<path d="M71.5 39.5L94 24.5L121 86H92L71.5 39.5Z" fill="#0000D4"/>
<path d="M9.964 97.404H6.628L6.076 99H4.312L7.324 90.612H9.28L12.292 99H10.516L9.964 97.404ZM9.508 96.06L8.296 92.556L7.084 96.06H9.508ZM16.3458 90.624C17.2258 90.624 17.9978 90.796 18.6618 91.14C19.3338 91.484 19.8498 91.976 20.2098 92.616C20.5778 93.248 20.7618 93.984 20.7618 94.824C20.7618 95.664 20.5778 96.4 20.2098 97.032C19.8498 97.656 19.3338 98.14 18.6618 98.484C17.9978 98.828 17.2258 99 16.3458 99H13.4178V90.624H16.3458ZM16.2858 97.572C17.1658 97.572 17.8458 97.332 18.3258 96.852C18.8058 96.372 19.0458 95.696 19.0458 94.824C19.0458 93.952 18.8058 93.272 18.3258 92.784C17.8458 92.288 17.1658 92.04 16.2858 92.04H15.0978V97.572H16.2858ZM28.9674 90.624V99H27.2874V95.436H23.6994V99H22.0194V90.624H23.6994V94.068H27.2874V90.624H28.9674ZM32.301 90.624V99H30.621V90.624H32.301ZM41.7042 90.624V96.504C41.7042 97.32 41.4682 97.956 40.9962 98.412C40.5242 98.86 39.8922 99.084 39.1002 99.084C38.3002 99.084 37.6522 98.852 37.1562 98.388C36.6682 97.924 36.4242 97.276 36.4242 96.444H38.1042C38.1122 96.804 38.1962 97.084 38.3562 97.284C38.5242 97.484 38.7642 97.584 39.0762 97.584C39.3802 97.584 39.6122 97.488 39.7722 97.296C39.9322 97.104 40.0122 96.84 40.0122 96.504V90.624H41.7042ZM48.7999 97.404H45.4639L44.9119 99H43.1479L46.1599 90.612H48.1159L51.1279 99H49.3519L48.7999 97.404ZM48.3439 96.06L47.1319 92.556L45.9199 96.06H48.3439ZM58.9138 90.624L56.0818 96.084V99H54.4018V96.084L51.5578 90.624H53.4538L55.2538 94.452L57.0418 90.624H58.9138ZM65.0187 97.404H61.6827L61.1307 99H59.3667L62.3787 90.612H64.3347L67.3467 99H65.5707L65.0187 97.404ZM64.5627 96.06L63.3507 92.556L62.1387 96.06H64.5627ZM77.4399 93.216C77.4399 93.664 77.3319 94.084 77.1159 94.476C76.9079 94.868 76.5759 95.184 76.1199 95.424C75.6719 95.664 75.1039 95.784 74.4159 95.784H73.0119V99H71.3319V90.624H74.4159C75.0639 90.624 75.6159 90.736 76.0719 90.96C76.5279 91.184 76.8679 91.492 77.0919 91.884C77.3239 92.276 77.4399 92.72 77.4399 93.216ZM74.3439 94.428C74.8079 94.428 75.1519 94.324 75.3759 94.116C75.5999 93.9 75.7119 93.6 75.7119 93.216C75.7119 92.4 75.2559 91.992 74.3439 91.992H73.0119V94.428H74.3439ZM80.3127 91.98V94.08H83.1327V95.412H80.3127V97.632H83.4927V99H78.6327V90.612H83.4927V91.98H80.3127ZM89.3394 99L87.4914 95.736H86.6994V99H85.0194V90.624H88.1634C88.8114 90.624 89.3634 90.74 89.8194 90.972C90.2754 91.196 90.6154 91.504 90.8394 91.896C91.0714 92.28 91.1874 92.712 91.1874 93.192C91.1874 93.744 91.0274 94.244 90.7074 94.692C90.3874 95.132 89.9114 95.436 89.2794 95.604L91.2834 99H89.3394ZM86.6994 94.476H88.1034C88.5594 94.476 88.8994 94.368 89.1234 94.152C89.3474 93.928 89.4594 93.62 89.4594 93.228C89.4594 92.844 89.3474 92.548 89.1234 92.34C88.8994 92.124 88.5594 92.016 88.1034 92.016H86.6994V94.476ZM95.5989 99.084C95.0149 99.084 94.4869 98.984 94.0149 98.784C93.5509 98.584 93.1829 98.296 92.9109 97.92C92.6389 97.544 92.4989 97.1 92.4909 96.588H94.2909C94.3149 96.932 94.4349 97.204 94.6509 97.404C94.8749 97.604 95.1789 97.704 95.5629 97.704C95.9549 97.704 96.2629 97.612 96.4869 97.428C96.7109 97.236 96.8229 96.988 96.8229 96.684C96.8229 96.436 96.7469 96.232 96.5949 96.072C96.4429 95.912 96.2509 95.788 96.0189 95.7C95.7949 95.604 95.4829 95.5 95.0829 95.388C94.5389 95.228 94.0949 95.072 93.7509 94.92C93.4149 94.76 93.1229 94.524 92.8749 94.212C92.6349 93.892 92.5149 93.468 92.5149 92.94C92.5149 92.444 92.6389 92.012 92.8869 91.644C93.1349 91.276 93.4829 90.996 93.9309 90.804C94.3789 90.604 94.8909 90.504 95.4669 90.504C96.3309 90.504 97.0309 90.716 97.5669 91.14C98.1109 91.556 98.4109 92.14 98.4669 92.892H96.6189C96.6029 92.604 96.4789 92.368 96.2469 92.184C96.0229 91.992 95.7229 91.896 95.3469 91.896C95.0189 91.896 94.7549 91.98 94.5549 92.148C94.3629 92.316 94.2669 92.56 94.2669 92.88C94.2669 93.104 94.3389 93.292 94.4829 93.444C94.6349 93.588 94.8189 93.708 95.0349 93.804C95.2589 93.892 95.5709 93.996 95.9709 94.116C96.5149 94.276 96.9589 94.436 97.3029 94.596C97.6469 94.756 97.9429 94.996 98.1909 95.316C98.4389 95.636 98.5629 96.056 98.5629 96.576C98.5629 97.024 98.4469 97.44 98.2149 97.824C97.9829 98.208 97.6429 98.516 97.1949 98.748C96.7469 98.972 96.2149 99.084 95.5989 99.084ZM105.155 97.404H101.819L101.267 99H99.5034L102.515 90.612H104.471L107.483 99H105.707L105.155 97.404ZM104.699 96.06L103.487 92.556L102.275 96.06H104.699ZM111.537 90.624C112.417 90.624 113.189 90.796 113.853 91.14C114.525 91.484 115.041 91.976 115.401 92.616C115.769 93.248 115.953 93.984 115.953 94.824C115.953 95.664 115.769 96.4 115.401 97.032C115.041 97.656 114.525 98.14 113.853 98.484C113.189 98.828 112.417 99 111.537 99H108.609V90.624H111.537ZM111.477 97.572C112.357 97.572 113.037 97.332 113.517 96.852C113.997 96.372 114.237 95.696 114.237 94.824C114.237 93.952 113.997 93.272 113.517 92.784C113.037 92.288 112.357 92.04 111.477 92.04H110.289V97.572H111.477ZM122.347 97.404H119.011L118.459 99H116.695L119.707 90.612H121.663L124.675 99H122.899L122.347 97.404ZM121.891 96.06L120.679 92.556L119.467 96.06H121.891Z" fill="#DB3333"/>
</svg>
